<svg xmlns="http://www.w3.org/2000/svg" width="612" height="612" viewBox="0 0 612 612"><path fill="#6786C4" d="M352.207 203.643c-69.151-32.99-69.943-86.04-69.943-86.04a75.448 75.448 0 0 1-.627 8.427c.763 12.294-40.92 124.406 1.419 150.449 56.153 34.557 45.978-10.249 39.585 49.548-6.884 64.468 26.231 115.643-50.82 111.249-73.847-4.217-128.954-58.614-128.073-128.534-3.536 12.081-5.588 25.31-5.588 40.058 0 93.426 77.59 159.934 173.398 155.185 94.373-4.677 148.06-73.438 148.06-152.813 0-73.635-34.558-112.782-107.411-147.529z"/><path fill="#8DD4F0" d="M393.589 246.533c-44.072-50.158-94.703-44.227-111.325-128.93-8.954 70.683-113.195 104.744-138.516 191.138-2.483 7.553-3.879 15.222-4.37 22.885l-.249.102c-9.988 113.259 112.727 172.499 207.281 130.675 80.087-35.417 112.557-141.444 47.179-215.87z"/><path fill="#6B79BB" d="M243.283 410.097c.438 7.499-5.517 13.933-13.264 14.376-7.747.432-14.382-5.281-14.808-12.779-.426-7.491 5.506-13.932 13.264-14.363 7.758-.445 14.394 5.269 14.808 12.766z"/><path fill="#FFF" d="M236.257 407.241c.178 2.921-2.158 5.429-5.168 5.601-3.016.177-5.612-2.06-5.766-4.98-.177-2.92 2.146-5.422 5.151-5.594 3.033-.172 5.63 2.051 5.783 4.973z"/><path fill="#6B79BB" d="M346.394 395.686c.427 7.5-5.522 13.928-13.275 14.377-7.751.431-14.381-5.287-14.812-12.785-.426-7.492 5.518-13.926 13.275-14.357 7.752-.451 14.381 5.267 14.812 12.765z"/><path fill="#FFF" d="M339.363 392.831c.153 2.921-2.152 5.428-5.175 5.599-3.021.178-5.604-2.063-5.759-4.984-.178-2.922 2.146-5.417 5.156-5.588 3.018-.172 5.601 2.05 5.778 4.973z"/></svg>
