<?xml version="1.0" encoding="UTF-8" standalone="no"?>
<svg
   xmlns:dc="http://purl.org/dc/elements/1.1/"
   xmlns:cc="http://creativecommons.org/ns#"
   xmlns:rdf="http://www.w3.org/1999/02/22-rdf-syntax-ns#"
   xmlns:svg="http://www.w3.org/2000/svg"
   xmlns="http://www.w3.org/2000/svg"
   xmlns:sodipodi="http://sodipodi.sourceforge.net/DTD/sodipodi-0.dtd"
   xmlns:inkscape="http://www.inkscape.org/namespaces/inkscape"
   fill="#000000"
   height="24"
   viewBox="0 0 24 24"
   width="24"
   id="svg2"
   version="1.1"
   inkscape:version="0.91 r13725"
   sodipodi:docname="restart.svg">
  <metadata
     id="metadata12">
    <rdf:RDF>
      <cc:Work
         rdf:about="">
        <dc:format>image/svg+xml</dc:format>
        <dc:type
           rdf:resource="http://purl.org/dc/dcmitype/StillImage" />
      </cc:Work>
    </rdf:RDF>
  </metadata>
  <defs
     id="defs10" />
  <sodipodi:namedview
     pagecolor="#ffffff"
     bordercolor="#666666"
     borderopacity="1"
     objecttolerance="10"
     gridtolerance="10"
     guidetolerance="10"
     inkscape:pageopacity="0"
     inkscape:pageshadow="2"
     inkscape:window-width="718"
     inkscape:window-height="874"
     id="namedview8"
     showgrid="false"
     inkscape:zoom="9.8333333"
     inkscape:cx="6.1034089"
     inkscape:cy="12"
     inkscape:window-x="720"
     inkscape:window-y="24"
     inkscape:window-maximized="0"
     inkscape:current-layer="svg2" />
  <path
     d="m 5.6664544,10.348205 c 0,-2.0506093 0.7707464,-4.0941483 2.3334524,-5.6568543 3.1254122,-3.125412 8.1812252,-3.11834 11.3066372,0.0071 3.125412,3.125412 3.132483,8.1812263 0.0071,11.3066383 -2.637509,2.637508 -6.639733,3.033488 -9.7085758,1.223294 L 11.07585,15.757601 c 2.227386,1.067732 4.978032,0.678823 6.82358,-1.166726 2.340524,-2.340523 2.340524,-6.1447583 0,-8.4852813 -2.340523,-2.340524 -6.144758,-2.340524 -8.4852807,0 -1.1738262,1.173798 -1.7324406,2.70822 -1.7253695,4.2426413 l 4.5537672,0 -4.949747,4.949748 -4.9497475,-4.949748 3.3234019,0 z"
     id="path4"
     inkscape:connector-curvature="0"
     style="fill:#ffffff;fill-opacity:1" />
  <path
     d="M0 0h24v24H0z"
     fill="none"
     id="path6" />
</svg>
